<svg xmlns="http://www.w3.org/2000/svg" viewBox="0 0 100 100"><path d="M44 68.568C40.153 60.406 14.149 59.603 14.149 45V32.456a8 8 0 1 1 12-.338V39c0 8.15 9.553 10.377 17.851 13.337V18.292a8 8 0 1 1 12 0v45.045C64.298 60.377 73.851 58.15 73.851 50V30.118a8 8 0 1 1 12 .338V56c0 14.603-26.004 15.406-29.851 23.568v2.14a8 8 0 1 1-12 0v-13.14zM20 32a5 5 0 1 0 0-10 5 5 0 0 0 0 10zm30-14a5 5 0 1 0 0-10 5 5 0 0 0 0 10zm30 12a5 5 0 1 1 0-10 5 5 0 0 1 0 10zM50 92a5 5 0 1 0 0-10 5 5 0 0 0 0 10z" fill="#627D98" fill-rule="evenodd"/></svg>