<svg xmlns="http://www.w3.org/2000/svg" fill="#627D98" data-name="Layer 1" viewBox="0 0 64 64"><path d="M59 8H5a1 1 0 0 0-1 1 6.984 6.984 0 0 0 2.815 5.589L31.4 32.8a1 1 0 0 0 1.19 0l24.595-18.211A6.984 6.984 0 0 0 60 9a1 1 0 0 0-1-1z"/><path d="M6.815 14.589L31.4 32.8a1 1 0 0 0 1.19 0l24.595-18.211A6.984 6.984 0 0 0 60 9a1 1 0 0 0-1-1H5a1 1 0 0 0-1 1 6.984 6.984 0 0 0 2.815 5.589z"/><path d="M58.375 16.2l-24.59 18.211a3 3 0 0 1-3.571 0L5.625 16.2a8.448 8.448 0 0 1-.74-.617.527.527 0 0 0-.885.385V55a1 1 0 0 0 1 1h54a1 1 0 0 0 1-1V15.968a.527.527 0 0 0-.885-.389 8.447 8.447 0 0 1-.74.621z"/></svg>