<svg xmlns="http://www.w3.org/2000/svg" xmlns:xlink="http://www.w3.org/1999/xlink" viewBox="0 0 100 100" version="1.1" x="0px" y="0px"><title>code-branches</title><desc>Created with Sketch.</desc><g stroke="none" stroke-width="1" fill="none" fill-rule="evenodd"><g fill="#212121"><path d="M44,68.5682029 C40.1530646,60.4062655 14.1488592,59.6032786 14.1488592,45 L14.1488592,32.4556977 C12.8157447,31.0265757 12,29.1085515 12,27 C12,22.581722 15.581722,19 20,19 C24.418278,19 28,22.581722 28,27 C28,28.9466941 27.3046856,30.7309889 26.1488592,32.1180818 L26.1488592,39 C26.1488592,47.1503928 35.702232,49.3769327 44,52.3372738 L44,18.2916488 C42.7552732,16.8813824 42,15.0288929 42,13 C42,8.581722 45.581722,5 50,5 C54.418278,5 58,8.581722 58,13 C58,15.0288929 57.2447268,16.8813824 56,18.2916488 L56,63.3372738 C64.297768,60.3769327 73.8511408,58.1503928 73.8511408,50 L73.8511408,30.1180818 C72.6953144,28.7309889 72,26.9466941 72,25 C72,20.581722 75.581722,17 80,17 C84.418278,17 88,20.581722 88,25 C88,27.1085515 87.1842553,29.0265757 85.8511408,30.4556977 L85.8511408,56 C85.8511408,70.6032786 59.8469354,71.4062655 55.999998,79.5682071 L56,81.7083512 C57.2447268,83.1186176 58,84.9711071 58,87 C58,91.418278 54.418278,95 50,95 C45.581722,95 42,91.418278 42,87 C42,84.9711071 42.7552732,83.1186176 44,81.7083512 L44,68.5682029 Z M20,32 C22.7614237,32 25,29.7614237 25,27 C25,24.2385763 22.7614237,22 20,22 C17.2385763,22 15,24.2385763 15,27 C15,29.7614237 17.2385763,32 20,32 Z M50,18 C52.7614237,18 55,15.7614237 55,13 C55,10.2385763 52.7614237,8 50,8 C47.2385763,8 45,10.2385763 45,13 C45,15.7614237 47.2385763,18 50,18 Z M80,30 C77.2385763,30 75,27.7614237 75,25 C75,22.2385763 77.2385763,20 80,20 C82.7614237,20 85,22.2385763 85,25 C85,27.7614237 82.7614237,30 80,30 Z M50,92 C52.7614237,92 55,89.7614237 55,87 C55,84.2385763 52.7614237,82 50,82 C47.2385763,82 45,84.2385763 45,87 C45,89.7614237 47.2385763,92 50,92 Z"></path></g></g></svg>
