<?xml version="1.0" encoding="UTF-8" standalone="no"?>
<!DOCTYPE svg PUBLIC "-//W3C//DTD SVG 1.1//EN" "http://www.w3.org/Graphics/SVG/1.1/DTD/svg11.dtd">
<svg version="1.1" xmlns="http://www.w3.org/2000/svg" xmlns:xlink="http://www.w3.org/1999/xlink" preserveAspectRatio="xMidYMid meet" viewBox="0 0 640 640" width="640" height="640"><defs><path d="M590.41 93.11L591.2 93.19L591.98 93.29L592.75 93.43L593.5 93.59L594.25 93.78L594.97 94L595.69 94.25L596.39 94.52L597.08 94.82L597.75 95.14L598.4 95.49L599.04 95.86L599.66 96.25L600.26 96.67L600.84 97.11L601.41 97.58L601.95 98.06L602.48 98.57L602.99 99.09L603.47 99.64L603.93 100.21L604.38 100.79L604.79 101.39L605.19 102.01L605.56 102.65L605.91 103.3L606.23 103.97L606.53 104.66L606.8 105.36L607.05 106.07L607.27 106.8L607.46 107.54L607.62 108.3L607.76 109.07L607.86 109.85L607.94 110.64L607.98 111.44L608 112.25L608 451.45L607.98 452.26L607.94 453.06L607.86 453.85L607.76 454.63L607.62 455.4L607.46 456.15L607.27 456.89L607.05 457.62L606.8 458.34L606.53 459.04L606.23 459.72L605.91 460.39L605.56 461.05L605.19 461.68L604.79 462.3L604.38 462.91L603.93 463.49L603.47 464.06L602.99 464.6L602.48 465.13L601.95 465.63L601.41 466.12L600.84 466.58L600.26 467.02L599.66 467.44L599.04 467.84L598.4 468.21L597.75 468.56L597.08 468.88L596.39 469.18L595.69 469.45L594.97 469.7L594.25 469.91L593.5 470.11L592.75 470.27L591.98 470.4L591.2 470.51L590.41 470.59L589.61 470.63L588.8 470.65L358.4 470.65L358.54 475.52L358.75 480.17L359.04 484.59L359.39 488.79L359.82 492.78L360.3 496.57L360.84 500.15L361.43 503.53L362.07 506.72L362.76 509.73L363.49 512.56L364.25 515.21L365.05 517.69L365.87 520.01L366.73 522.17L367.6 524.18L368.48 526.05L369.38 527.77L370.29 529.35L371.2 530.81L372.11 532.14L373.02 533.35L373.92 534.45L374.8 535.44L375.68 536.32L376.53 537.11L377.35 537.81L378.15 538.42L378.91 538.95L379.64 539.41L380.33 539.79L380.97 540.12L381.56 540.38L382.1 540.59L382.59 540.75L383.01 540.87L383.36 540.96L383.65 541.01L383.86 541.04L384 541.05L390.4 541.05L390.69 541.05L390.97 541.07L391.24 541.09L391.51 541.12L391.78 541.17L392.04 541.22L392.29 541.28L392.54 541.35L392.78 541.42L393.02 541.51L393.25 541.6L393.48 541.7L393.69 541.82L393.91 541.93L394.11 542.06L394.31 542.2L394.5 542.34L394.69 542.49L394.87 542.64L395.04 542.81L395.2 542.98L395.36 543.16L395.51 543.34L395.65 543.54L395.79 543.74L395.91 543.94L396.03 544.15L396.14 544.37L396.25 544.6L396.34 544.83L396.43 545.07L396.5 545.31L396.57 545.56L396.63 545.81L396.68 546.07L396.72 546.34L396.76 546.61L396.78 546.88L396.8 547.16L396.8 547.45L396.8 547.73L396.78 548.01L396.76 548.29L396.72 548.56L396.68 548.83L396.63 549.09L396.57 549.34L396.5 549.59L396.43 549.83L396.34 550.07L396.25 550.3L396.14 550.52L396.03 550.74L395.91 550.95L395.79 551.16L395.65 551.36L395.51 551.55L395.36 551.74L395.2 551.92L395.04 552.09L394.87 552.25L394.69 552.41L394.5 552.56L394.31 552.7L394.11 552.84L393.91 552.96L393.69 553.08L393.48 553.19L393.25 553.29L393.02 553.39L392.78 553.47L392.54 553.55L392.29 553.62L392.04 553.68L391.78 553.73L391.51 553.77L391.24 553.81L390.97 553.83L390.69 553.84L390.4 553.85L249.6 553.85L249.31 553.84L249.03 553.83L248.76 553.81L248.49 553.77L248.22 553.73L247.96 553.68L247.71 553.62L247.46 553.55L247.22 553.47L246.98 553.39L246.75 553.29L246.52 553.19L246.31 553.08L246.09 552.96L245.89 552.84L245.69 552.7L245.5 552.56L245.31 552.41L245.13 552.25L244.96 552.09L244.8 551.92L244.64 551.74L244.49 551.55L244.35 551.36L244.21 551.16L244.09 550.95L243.97 550.74L243.86 550.52L243.75 550.3L243.66 550.07L243.57 549.83L243.5 549.59L243.43 549.34L243.37 549.09L243.32 548.83L243.28 548.56L243.24 548.29L243.22 548.01L243.2 547.73L243.2 547.45L243.2 547.16L243.22 546.88L243.24 546.61L243.28 546.34L243.32 546.07L243.37 545.81L243.43 545.56L243.5 545.31L243.57 545.07L243.66 544.83L243.75 544.6L243.86 544.37L243.97 544.15L244.09 543.94L244.21 543.74L244.35 543.54L244.49 543.34L244.64 543.16L244.8 542.98L244.96 542.81L245.13 542.64L245.31 542.49L245.5 542.34L245.69 542.2L245.89 542.06L246.09 541.93L246.31 541.82L246.52 541.7L246.75 541.6L246.98 541.51L247.22 541.42L247.46 541.35L247.71 541.28L247.96 541.22L248.22 541.17L248.49 541.12L248.76 541.09L249.03 541.07L249.31 541.05L249.6 541.05L256 541.05L256.09 541.04L256.26 541.02L256.51 540.97L256.84 540.89L257.23 540.78L257.69 540.63L258.21 540.43L258.79 540.18L259.41 539.87L260.09 539.5L260.81 539.06L261.57 538.54L262.36 537.95L263.19 537.27L264.04 536.49L264.92 535.62L265.81 534.65L266.72 533.56L267.64 532.37L268.56 531.05L269.48 529.6L270.4 528.03L271.32 526.32L272.22 524.46L273.11 522.45L273.97 520.3L274.81 517.98L275.63 515.49L276.41 512.83L277.15 510L277.85 506.98L278.51 503.77L279.11 500.37L279.67 496.77L280.16 492.97L280.59 488.95L280.95 484.71L281.25 480.26L281.46 475.57L281.6 470.65L51.2 470.65L50.39 470.63L49.59 470.59L48.8 470.51L48.02 470.4L47.25 470.27L46.5 470.11L45.75 469.91L45.03 469.7L44.31 469.45L43.61 469.18L42.92 468.88L42.25 468.56L41.6 468.21L40.96 467.84L40.34 467.44L39.74 467.02L39.16 466.58L38.59 466.12L38.05 465.63L37.52 465.13L37.01 464.6L36.53 464.06L36.07 463.49L35.62 462.91L35.21 462.3L34.81 461.68L34.44 461.05L34.09 460.39L33.77 459.72L33.47 459.04L33.2 458.34L32.95 457.62L32.73 456.89L32.54 456.15L32.38 455.4L32.24 454.63L32.14 453.85L32.06 453.06L32.02 452.26L32 451.45L32 112.25L32.02 111.44L32.06 110.64L32.14 109.85L32.24 109.07L32.38 108.3L32.54 107.54L32.73 106.8L32.95 106.07L33.2 105.36L33.47 104.66L33.77 103.97L34.09 103.3L34.44 102.65L34.81 102.01L35.21 101.39L35.62 100.79L36.07 100.21L36.53 99.64L37.01 99.09L37.52 98.57L38.05 98.06L38.59 97.58L39.16 97.11L39.74 96.67L40.34 96.25L40.96 95.86L41.6 95.49L42.25 95.14L42.92 94.82L43.61 94.52L44.31 94.25L45.03 94L45.75 93.78L46.5 93.59L47.25 93.43L48.02 93.29L48.8 93.19L49.59 93.11L50.39 93.06L51.2 93.05L588.8 93.05L589.61 93.06L590.41 93.11ZM294.34 473.5L294.25 476.28L294.13 479L293.99 481.66L293.82 484.25L293.62 486.79L293.4 489.26L293.16 491.67L292.89 494.02L292.6 496.32L292.29 498.55L291.96 500.73L291.61 502.85L291.23 504.92L290.85 506.93L290.44 508.88L290.01 510.79L289.57 512.63L289.11 514.43L288.64 516.17L288.15 517.86L287.65 519.5L287.14 521.09L286.61 522.63L286.08 524.12L285.53 525.56L284.97 526.95L284.4 528.3L283.82 529.6L283.24 530.86L282.65 532.07L282.05 533.24L281.45 534.36L280.84 535.44L280.22 536.47L279.61 537.47L278.99 538.42L278.37 539.34L277.74 540.21L277.12 541.05L362.88 541.05L362.26 540.21L361.63 539.34L361.01 538.42L360.39 537.47L359.78 536.47L359.16 535.44L358.55 534.36L357.95 533.24L357.35 532.07L356.76 530.86L356.18 529.6L355.6 528.3L355.03 526.95L354.47 525.56L353.92 524.12L353.39 522.63L352.86 521.09L352.35 519.5L351.85 517.86L351.36 516.17L350.89 514.43L350.43 512.63L349.99 510.79L349.56 508.88L349.16 506.93L348.77 504.92L348.39 502.85L348.04 500.73L347.71 498.55L347.4 496.32L347.11 494.02L346.84 491.67L346.6 489.26L346.38 486.79L346.19 484.25L346.01 481.66L345.87 479L345.75 476.28L345.66 473.5L345.6 470.65L294.4 470.65L294.34 473.5ZM44.8 451.45L44.8 451.73L44.82 452.01L44.84 452.29L44.88 452.56L44.92 452.83L44.97 453.09L45.03 453.34L45.1 453.59L45.17 453.83L45.26 454.07L45.35 454.3L45.46 454.52L45.57 454.74L45.69 454.95L45.81 455.16L45.95 455.36L46.09 455.55L46.24 455.74L46.4 455.92L46.56 456.09L46.73 456.25L46.91 456.41L47.1 456.56L47.29 456.7L47.49 456.84L47.69 456.96L47.91 457.08L48.12 457.19L48.35 457.29L48.58 457.39L48.82 457.47L49.06 457.55L49.31 457.62L49.56 457.68L49.82 457.73L50.09 457.77L50.36 457.81L50.63 457.83L50.91 457.84L51.2 457.85L588.8 457.85L589.09 457.84L589.37 457.83L589.64 457.81L589.91 457.77L590.18 457.73L590.44 457.68L590.69 457.62L590.94 457.55L591.18 457.47L591.42 457.39L591.65 457.29L591.88 457.19L592.09 457.08L592.31 456.96L592.51 456.84L592.71 456.7L592.9 456.56L593.09 456.41L593.27 456.25L593.44 456.09L593.6 455.92L593.76 455.74L593.91 455.55L594.05 455.36L594.19 455.16L594.31 454.95L594.43 454.74L594.54 454.52L594.65 454.3L594.74 454.07L594.83 453.83L594.9 453.59L594.97 453.34L595.03 453.09L595.08 452.83L595.12 452.56L595.16 452.29L595.18 452.01L595.2 451.73L595.2 451.45L595.2 406.65L44.8 406.65L44.8 451.45ZM50.91 105.85L50.63 105.87L50.36 105.89L50.09 105.92L49.82 105.97L49.56 106.02L49.31 106.08L49.06 106.15L48.82 106.22L48.58 106.31L48.35 106.4L48.12 106.5L47.91 106.62L47.69 106.73L47.49 106.86L47.29 107L47.1 107.14L46.91 107.29L46.73 107.44L46.56 107.61L46.4 107.78L46.24 107.96L46.09 108.14L45.95 108.34L45.81 108.54L45.69 108.74L45.57 108.95L45.46 109.17L45.35 109.4L45.26 109.63L45.17 109.87L45.1 110.11L45.03 110.36L44.97 110.61L44.92 110.87L44.88 111.14L44.84 111.41L44.82 111.68L44.8 111.96L44.8 112.25L44.8 393.85L595.2 393.85L595.2 112.25L595.2 111.96L595.18 111.68L595.16 111.41L595.12 111.14L595.08 110.87L595.03 110.61L594.97 110.36L594.9 110.11L594.83 109.87L594.74 109.63L594.65 109.4L594.54 109.17L594.43 108.95L594.31 108.74L594.19 108.54L594.05 108.34L593.91 108.14L593.76 107.96L593.6 107.78L593.44 107.61L593.27 107.44L593.09 107.29L592.9 107.14L592.71 107L592.51 106.86L592.31 106.73L592.09 106.62L591.88 106.5L591.65 106.4L591.42 106.31L591.18 106.22L590.94 106.15L590.69 106.08L590.44 106.02L590.18 105.97L589.91 105.92L589.64 105.89L589.37 105.87L589.09 105.85L588.8 105.85L51.2 105.85L50.91 105.85Z" id="bb4htJPk3"></path><path d="M320 419.45C312.93 419.45 307.2 425.18 307.2 432.25C307.2 439.32 312.93 445.05 320 445.05C327.07 445.05 332.8 439.32 332.8 432.25C332.8 425.18 327.07 419.45 320 419.45Z" id="a2dLaPiwbz"></path><path d="M316.47 326.74C313.46 326.26 310.63 325.21 308.83 323.56C304.09 315.37 299.29 303.73 294.96 290.43C295.81 289.86 300.09 287.01 307.8 281.88L303.89 276.02C297.21 280.47 293.5 282.94 292.76 283.44C289.73 273.36 287.02 262.54 284.83 251.61C284.29 248.9 283.82 246.19 283.34 243.48C284.53 242.59 290.48 238.13 301.2 230.09L296.98 224.44C288.03 231.15 283.06 234.88 282.07 235.63C279.97 221.74 278.87 208.27 279.06 196.54C280.25 195.64 286.22 191.16 296.98 183.1L292.75 177.46C284.81 183.42 280.4 186.73 279.51 187.39C279.89 183.06 280.43 178.99 281.29 175.48C283.52 166.32 293.22 158.2 302.68 154.24C306.92 152.47 311.65 151.44 316.47 151.09C316.47 186.22 316.47 309.18 316.47 326.74Z" id="dR64fgv6N"></path><path d="M323.52 151.09C328.33 151.45 333.05 152.48 337.29 154.24C346.83 158.21 356.7 166.29 358.88 175.46C361.05 184.57 361.42 197.8 360.48 212.63C359.16 211.84 352.55 207.88 340.66 200.75L337.03 206.79C350.73 215.01 358.34 219.57 359.87 220.49C358.8 232.26 357.02 244.71 354.67 256.77C354.13 259.55 353.54 262.27 352.95 264.99C352.2 264.5 348.47 262.01 341.75 257.53L337.84 263.4C345.9 268.77 350.37 271.75 351.27 272.35C349 281.83 346.49 290.81 343.83 298.55C339.76 310.41 335.17 319.58 331.62 323.4C329.8 325.21 326.75 326.34 323.52 326.81C323.52 291.67 323.52 186.24 323.52 151.09Z" id="afsY27J4A"></path><path d="M316.47 334.21L316.47 373.49L323.52 373.49L323.52 334.21L316.47 334.21Z" id="h5bFiBicY3"></path></defs><g><g><g><use xlink:href="#bb4htJPk3" opacity="1" fill="#102a43" fill-opacity="1"></use><g><use xlink:href="#bb4htJPk3" opacity="1" fill-opacity="0" stroke="#000000" stroke-width="1" stroke-opacity="0"></use></g></g><g><use xlink:href="#a2dLaPiwbz" opacity="1" fill="#102a43" fill-opacity="1"></use><g><use xlink:href="#a2dLaPiwbz" opacity="1" fill-opacity="0" stroke="#000000" stroke-width="1" stroke-opacity="0"></use></g></g><g><use xlink:href="#dR64fgv6N" opacity="1" fill="#54D1DB" fill-opacity="1"></use><g><use xlink:href="#dR64fgv6N" opacity="1" fill-opacity="0" stroke="#87EAF2" stroke-width="1" stroke-opacity="0"></use></g></g><g><use xlink:href="#afsY27J4A" opacity="1" fill="#54D1DB" fill-opacity="1"></use><g><use xlink:href="#afsY27J4A" opacity="1" fill-opacity="0" stroke="#87EAF2" stroke-width="1" stroke-opacity="0"></use></g></g><g><use xlink:href="#h5bFiBicY3" opacity="1" fill="#54D1DB" fill-opacity="1"></use><g><use xlink:href="#h5bFiBicY3" opacity="1" fill-opacity="0" stroke="#000000" stroke-width="1" stroke-opacity="0"></use></g></g></g></g></svg>
