<svg xmlns="http://www.w3.org/2000/svg" fill="#0a1214" data-name="Layer 1" viewBox="0 0 64 64" x="0px" y="0px"><title>mail-inbox-email</title><path d="M59,8H5A1,1,0,0,0,4,9a6.984,6.984,0,0,0,2.815,5.589L31.4,32.8a1,1,0,0,0,1.19,0L57.185,14.589A6.984,6.984,0,0,0,60,9,1,1,0,0,0,59,8Z"></path><path d="M6.815,14.589,31.4,32.8a1,1,0,0,0,1.19,0L57.185,14.589A6.984,6.984,0,0,0,60,9a1,1,0,0,0-1-1H5A1,1,0,0,0,4,9,6.984,6.984,0,0,0,6.815,14.589Z"></path><path d="M58.375,16.2,33.785,34.411a3,3,0,0,1-3.571,0L5.625,16.2a8.448,8.448,0,0,1-.74-.617A.527.527,0,0,0,4,15.968V55a1,1,0,0,0,1,1H59a1,1,0,0,0,1-1V15.968a.527.527,0,0,0-.885-.389A8.447,8.447,0,0,1,58.375,16.2Z"></path></svg>
