<svg xmlns="http://www.w3.org/2000/svg" viewBox="0 0 16 16"><path fill="#54D1DB" d="M8.883 1.004a1.069 1.069 0 0 0-.453.058 1.16 1.16 0 0 0-.735 1.47l.477 1.437-2.738.914-.457-1.375a1.172 1.172 0 0 0-1.473-.735 1.16 1.16 0 0 0-.73 1.473l.456 1.375-1.433.48a1.161 1.161 0 0 0 .734 2.204l1.438-.477.914 2.738-1.375.461c-.606.203-.938.86-.735 1.47.207.608.864.937 1.473.733l1.375-.46.48 1.437c.204.61.864.938 1.47.73a1.16 1.16 0 0 0 .734-1.468l-.477-1.438 2.734-.918.465 1.375a1.162 1.162 0 0 0 2.203-.738l-.46-1.371 1.433-.48a1.16 1.16 0 0 0 .735-1.47 1.157 1.157 0 0 0-1.47-.734l-1.437.477-.914-2.738 1.371-.457c.61-.207.942-.864.735-1.473a1.155 1.155 0 0 0-1.47-.73l-1.374.456-.48-1.437a1.162 1.162 0 0 0-1.016-.79zm.031 5.168l.914 2.742-2.742.914-.914-2.742z"/></svg>
