<svg height="24" width="24" xmlns="http://www.w3.org/2000/svg" xmlns:xlink="http://www.w3.org/1999/xlink"><defs><path id="a" d="M12.04.29C5.55.29.29 5.55.29 12.04c0 6.5 5.26 11.76 11.75 11.76 6.5 0 11.76-5.26 11.76-11.76C23.8 5.55 18.54.29 12.04.29z"/><path id="b" d="M9.84 18.22c5.23 0 8.09-4.33 8.09-8.09v-.37c.55-.4 1.04-.9 1.42-1.47-.51.22-1.06.38-1.63.45.59-.36 1.03-.91 1.25-1.58-.55.33-1.16.56-1.81.69-.52-.55-1.26-.89-2.08-.89-1.56 0-2.84 1.27-2.84 2.84 0 .22.03.44.08.65a8.06 8.06 0 0 1-5.86-2.97c-.25.41-.39.9-.39 1.42 0 .99.5 1.86 1.27 2.37-.47-.01-.9-.14-1.29-.36v.04c0 1.38.98 2.52 2.29 2.79-.24.06-.49.1-.75.1-.19 0-.36-.02-.54-.05a2.835 2.835 0 0 0 2.66 1.97 5.746 5.746 0 0 1-4.22 1.18c1.25.81 2.75 1.28 4.35 1.28"/></defs><use fill="#54d1db" xlink:href="#a"/><use fill="none" xlink:href="#a"/><use fill="#fff" xlink:href="#b"/><use fill="none" xlink:href="#b"/></svg>