<svg fill="none" height="100" width="95" xmlns="http://www.w3.org/2000/svg"><path clip-rule="evenodd" d="M94.802 49.192c-.89 13.855-7.629 26.133-18.22 35.254C65.266 94.188 51.23 102.392 36.54 99.36 21.604 96.278 11.308 83.44 5.058 69.686c-6.016-13.238-7.13-28.274-.804-41.37 6.353-13.15 18.9-21.798 33.144-25.574 15.042-3.987 32.06-4.656 44.109 5.094 11.915 9.642 14.271 26.17 13.295 41.356z" fill="#c69662" fill-rule="evenodd"/><path d="M68.452 73.042H25.475a2.286 2.286 0 1 1 0-4.574h42.977a2.286 2.286 0 1 1 0 4.574zm.26-10.64c-2.695 0-4.124-1.297-5.163-2.244-.859-.782-1.204-1.051-2.087-1.051-.882 0-1.223.269-2.086 1.051-1.04.947-2.468 2.243-5.164 2.243s-4.125-1.296-5.164-2.243c-.859-.782-1.204-1.051-2.086-1.051-.883 0-1.224.269-2.087 1.051-1.04.947-2.468 2.243-5.164 2.243s-4.125-1.296-5.164-2.243c-.859-.782-1.204-1.051-2.086-1.051-.883 0-1.228.269-2.087 1.051-1.043.947-2.467 2.243-5.164 2.243a2.286 2.286 0 1 1 0-4.574c.883 0 1.228-.269 2.087-1.051 1.039-.947 2.467-2.243 5.164-2.243 2.696 0 4.124 1.296 5.164 2.243.858.782 1.203 1.05 2.086 1.05s1.224-.268 2.087-1.05c1.039-.947 2.467-2.243 5.164-2.243 2.696 0 4.124 1.296 5.164 2.243.858.782 1.203 1.05 2.086 1.05s1.224-.268 2.086-1.05c1.04-.947 2.468-2.243 5.164-2.243 2.697 0 4.125 1.296 5.164 2.243.86.782 1.204 1.05 2.087 1.05a2.286 2.286 0 1 1 0 4.575zm-21.75-12.789c-6.513 0-11.81-5.296-11.81-11.808C35.158 31.296 40.454 26 46.963 26c6.512 0 11.808 5.296 11.808 11.809 0 6.508-5.296 11.804-11.809 11.804zm0-19.035a7.237 7.237 0 0 0-7.231 7.23 7.237 7.237 0 0 0 7.23 7.231 7.237 7.237 0 0 0 7.23-7.23 7.237 7.237 0 0 0-7.23-7.23z" fill="#fff"/></svg>