<svg height="640" preserveAspectRatio="xMidYMid meet" viewBox="0 0 640 640" width="640" xmlns="http://www.w3.org/2000/svg" xmlns:xlink="http://www.w3.org/1999/xlink">
    <defs>
        <path id="a" d="m590.41 93.11.79.08.78.1.77.14.75.16.75.19.72.22.72.25.7.27.69.3.67.32.65.35.64.37.62.39.6.42.58.44.57.47.54.48.53.51.51.52.48.55.46.57.45.58.41.6.4.62.37.64.35.65.32.67.3.69.27.7.25.71.22.73.19.74.16.76.14.77.1.78.08.79.04.8.02.81v339.2l-.02.81-.04.8-.08.79-.1.78-.14.77-.16.75-.19.74-.22.73-.25.72-.27.7-.3.68-.32.67-.35.66-.37.63-.4.62-.41.61-.45.58-.46.57-.48.54-.51.53-.53.5-.54.49-.57.46-.58.44-.6.42-.62.4-.64.37-.65.35-.67.32-.69.3-.7.27-.72.25-.72.21-.75.2-.75.16-.77.13-.78.11-.79.08-.8.04-.81.02h-230.4l.14 4.87.21 4.65.29 4.42.35 4.2.43 3.99.48 3.79.54 3.58.59 3.38.64 3.19.69 3.01.73 2.83.76 2.65.8 2.48.82 2.32.86 2.16.87 2.01.88 1.87.9 1.72.91 1.58.91 1.46.91 1.33.91 1.21.9 1.1.88.99.88.88.85.79.82.7.8.61.76.53.73.46.69.38.64.33.59.26.54.21.49.16.42.12.35.09.29.05.21.03.14.01h6.4.29l.28.02.27.02.27.03.27.05.26.05.25.06.25.07.24.07.24.09.23.09.23.1.21.12.22.11.2.13.2.14.19.14.19.15.18.15.17.17.16.17.16.18.15.18.14.2.14.2.12.2.12.21.11.22.11.23.09.23.09.24.07.24.07.25.06.25.05.26.04.27.04.27.02.27.02.28v.29.28l-.02.28-.02.28-.04.27-.04.27-.05.26-.06.25-.07.25-.07.24-.09.24-.09.23-.11.22-.11.22-.12.21-.12.21-.14.2-.14.19-.15.19-.16.18-.16.17-.17.16-.18.16-.19.15-.19.14-.2.14-.2.12-.22.12-.21.11-.23.1-.23.1-.24.08-.24.08-.25.07-.25.06-.26.05-.27.04-.27.04-.27.02-.28.01-.29.01h-140.8l-.29-.01-.28-.01-.27-.02-.27-.04-.27-.04-.26-.05-.25-.06-.25-.07-.24-.08-.24-.08-.23-.1-.23-.1-.21-.11-.22-.12-.2-.12-.2-.14-.19-.14-.19-.15-.18-.16-.17-.16-.16-.17-.16-.18-.15-.19-.14-.19-.14-.2-.12-.21-.12-.21-.11-.22-.11-.22-.09-.23-.09-.24-.07-.24-.07-.25-.06-.25-.05-.26-.04-.27-.04-.27-.02-.28-.02-.28v-.28-.29l.02-.28.02-.27.04-.27.04-.27.05-.26.06-.25.07-.25.07-.24.09-.24.09-.23.11-.23.11-.22.12-.21.12-.2.14-.2.14-.2.15-.18.16-.18.16-.17.17-.17.18-.15.19-.15.19-.14.2-.14.2-.13.22-.11.21-.12.23-.1.23-.09.24-.09.24-.07.25-.07.25-.06.26-.05.27-.05.27-.03.27-.02.28-.02h.29 6.4l.09-.01.17-.02.25-.05.33-.08.39-.11.46-.15.52-.2.58-.25.62-.31.68-.37.72-.44.76-.52.79-.59.83-.68.85-.78.88-.87.89-.97.91-1.09.92-1.19.92-1.32.92-1.45.92-1.57.92-1.71.9-1.86.89-2.01.86-2.15.84-2.32.82-2.49.78-2.66.74-2.83.7-3.02.66-3.21.6-3.4.56-3.6.49-3.8.43-4.02.36-4.24.3-4.45.21-4.69.14-4.92h-230.4l-.81-.02-.8-.04-.79-.08-.78-.11-.77-.13-.75-.16-.75-.2-.72-.21-.72-.25-.7-.27-.69-.3-.67-.32-.65-.35-.64-.37-.62-.4-.6-.42-.58-.44-.57-.46-.54-.49-.53-.5-.51-.53-.48-.54-.46-.57-.45-.58-.41-.61-.4-.62-.37-.63-.35-.66-.32-.67-.3-.68-.27-.7-.25-.72-.22-.73-.19-.74-.16-.75-.14-.77-.1-.78-.08-.79-.04-.8-.02-.81v-339.2l.02-.81.04-.8.08-.79.1-.78.14-.77.16-.76.19-.74.22-.73.25-.71.27-.7.3-.69.32-.67.35-.65.37-.64.4-.62.41-.6.45-.58.46-.57.48-.55.51-.52.53-.51.54-.48.57-.47.58-.44.6-.42.62-.39.64-.37.65-.35.67-.32.69-.3.7-.27.72-.25.72-.22.75-.19.75-.16.77-.14.78-.1.79-.08.8-.05.81-.01h537.6l.81.01zm-296.07 380.39-.09 2.78-.12 2.72-.14 2.66-.17 2.59-.2 2.54-.22 2.47-.24 2.41-.27 2.35-.29 2.3-.31 2.23-.33 2.18-.35 2.12-.38 2.07-.38 2.01-.41 1.95-.43 1.91-.44 1.84-.46 1.8-.47 1.74-.49 1.69-.5 1.64-.51 1.59-.53 1.54-.53 1.49-.55 1.44-.56 1.39-.57 1.35-.58 1.3-.58 1.26-.59 1.21-.6 1.17-.6 1.12-.61 1.08-.62 1.03-.61 1-.62.95-.62.92-.63.87-.62.84h85.76l-.62-.84-.63-.87-.62-.92-.62-.95-.61-1-.62-1.03-.61-1.08-.6-1.12-.6-1.17-.59-1.21-.58-1.26-.58-1.3-.57-1.35-.56-1.39-.55-1.44-.53-1.49-.53-1.54-.51-1.59-.5-1.64-.49-1.69-.47-1.74-.46-1.8-.44-1.84-.43-1.91-.4-1.95-.39-2.01-.38-2.07-.35-2.12-.33-2.18-.31-2.23-.29-2.3-.27-2.35-.24-2.41-.22-2.47-.19-2.54-.18-2.59-.14-2.66-.12-2.72-.09-2.78-.06-2.85h-51.2zm-249.54-22.05v.28l.02.28.02.28.04.27.04.27.05.26.06.25.07.25.07.24.09.24.09.23.11.22.11.22.12.21.12.21.14.2.14.19.15.19.16.18.16.17.17.16.18.16.19.15.19.14.2.14.2.12.22.12.21.11.23.1.23.1.24.08.24.08.25.07.25.06.26.05.27.04.27.04.27.02.28.01.29.01h537.6l.29-.01.28-.01.27-.02.27-.04.27-.04.26-.05.25-.06.25-.07.24-.08.24-.08.23-.1.23-.1.21-.11.22-.12.2-.12.2-.14.19-.14.19-.15.18-.16.17-.16.16-.17.16-.18.15-.19.14-.19.14-.2.12-.21.12-.21.11-.22.11-.22.09-.23.09-.24.07-.24.07-.25.06-.25.05-.26.04-.27.04-.27.02-.28.02-.28v-.28-44.8h-550.4zm6.11-345.6-.28.02-.27.02-.27.03-.27.05-.26.05-.25.06-.25.07-.24.07-.24.09-.23.09-.23.1-.21.12-.22.11-.2.13-.2.14-.19.14-.19.15-.18.15-.17.17-.16.17-.16.18-.15.18-.14.2-.14.2-.12.2-.12.21-.11.22-.11.23-.09.23-.09.24-.07.24-.07.25-.06.25-.05.26-.04.27-.04.27-.02.27-.02.28v.29 281.6h550.4v-281.6-.29l-.02-.28-.02-.27-.04-.27-.04-.27-.05-.26-.06-.25-.07-.25-.07-.24-.09-.24-.09-.23-.11-.23-.11-.22-.12-.21-.12-.2-.14-.2-.14-.2-.15-.18-.16-.18-.16-.17-.17-.17-.18-.15-.19-.15-.19-.14-.2-.14-.2-.13-.22-.11-.21-.12-.23-.1-.23-.09-.24-.09-.24-.07-.25-.07-.25-.06-.26-.05-.27-.05-.27-.03-.27-.02-.28-.02h-.29-537.6z"/>
        <path id="b" d="m320 419.45c-7.07 0-12.8 5.73-12.8 12.8s5.73 12.8 12.8 12.8 12.8-5.73 12.8-12.8-5.73-12.8-12.8-12.8z"/>
        <path id="c" d="m316.47 326.74c-3.01-.48-5.84-1.53-7.64-3.18-4.74-8.19-9.54-19.83-13.87-33.13.85-.57 5.13-3.42 12.84-8.55l-3.91-5.86c-6.68 4.45-10.39 6.92-11.13 7.42-3.03-10.08-5.74-20.9-7.93-31.83-.54-2.71-1.01-5.42-1.49-8.13 1.19-.89 7.14-5.35 17.86-13.39l-4.22-5.65c-8.95 6.71-13.92 10.44-14.91 11.19-2.1-13.89-3.2-27.36-3.01-39.09 1.19-.9 7.16-5.38 17.92-13.44l-4.23-5.64c-7.94 5.96-12.35 9.27-13.24 9.93.38-4.33.92-8.4 1.78-11.91 2.23-9.16 11.93-17.28 21.39-21.24 4.24-1.77 8.97-2.8 13.79-3.15z"/>
        <path id="d" d="m323.52 151.09c4.81.36 9.53 1.39 13.77 3.15 9.54 3.97 19.41 12.05 21.59 21.22 2.17 9.11 2.54 22.34 1.6 37.17-1.32-.79-7.93-4.75-19.82-11.88l-3.63 6.04c13.7 8.22 21.31 12.78 22.84 13.7-1.07 11.77-2.85 24.22-5.2 36.28-.54 2.78-1.13 5.5-1.72 8.22-.75-.49-4.48-2.98-11.2-7.46l-3.91 5.87c8.06 5.37 12.53 8.35 13.43 8.95-2.27 9.48-4.78 18.46-7.44 26.2-4.07 11.86-8.66 21.03-12.21 24.85-1.82 1.81-4.87 2.94-8.1 3.41 0-35.14 0-140.57 0-175.72z"/>
        <path id="e" d="m316.47 334.21v39.28h7.05v-39.28z"/>
    </defs>
    <use fill="#2d3748" xlink:href="#a"/>
    <use fill="none" xlink:href="#a"/>
    <use fill="#2d3748" xlink:href="#b"/>
    <use fill="none" xlink:href="#b"/>
    <use fill="#4fd1c5" xlink:href="#c"/>
    <use fill="none" xlink:href="#c"/>
    <use fill="#4fd1c5" xlink:href="#d"/>
    <use fill="none" xlink:href="#d"/>
    <use fill="#4fd1c5" xlink:href="#e"/>
    <use fill="none" xlink:href="#e"/>
</svg>
