<?xml version="1.0" encoding="iso-8859-1"?>
<!-- Generator: Adobe Illustrator 21.1.0, SVG Export Plug-In . SVG Version: 6.00 Build 0)  -->
<svg version="1.1" id="Calque_1" xmlns="http://www.w3.org/2000/svg" xmlns:xlink="http://www.w3.org/1999/xlink" x="0px" y="0px"
	 width="432px" height="432px" viewBox="0 0 432 432" enable-background="new 0 0 432 432" xml:space="preserve">
<g>
	<g>
		<g>
			<path fill="#E6E6E6" d="M308.871,108.122c5.796-3.593,9.689-9.994,9.689-17.277v0c0-11.183-9.15-20.333-20.333-20.333H133.773
				c-11.183,0-20.333,9.15-20.333,20.333v0c0,7.283,3.894,13.685,9.689,17.277c-31.094,26.361-50.837,65.701-50.837,109.658
				c0,79.368,64.34,143.708,143.708,143.708s143.708-64.34,143.708-143.708C359.708,173.823,339.966,134.483,308.871,108.122z"/>
			<g>
				<path fill="#A5C0DF" d="M344.394,217.78c0,70.91-57.484,128.395-128.395,128.395S87.605,288.691,87.605,217.78
					S145.09,162.678,216,162.678S344.394,146.87,344.394,217.78z"/>
				<g>
					<g>
						<circle fill="#7A9EC7" cx="193.883" cy="225.339" r="12"/>
						<circle fill="#7A9EC7" cx="232.749" cy="202.091" r="8.485"/>
						<circle fill="#7A9EC7" cx="197.9" cy="177.94" r="6"/>
					</g>
					<path fill="#7A9EC7" d="M281.52,309.219c0,13.159-29.941,23.827-66.875,23.827s-66.875-10.668-66.875-23.827
						c0-13.159,29.941-7.761,66.875-7.761S281.52,296.06,281.52,309.219z"/>
				</g>
			</g>
		</g>
		<g>
			<g>
				<path fill="#999999" d="M171.971,314.329c-3.604-0.067-6.797-0.14-9.887-1.028c-1.375-0.395-2.721-0.913-4.044-1.461
					c-2.706-1.122-4.13-3.303-4.777-6.057c-0.589-2.508-0.417-4.921,0.575-7.36c1.44-3.542,3.722-6.306,6.773-8.564
					c2.779-2.058,5.748-3.648,9.109-4.486c3.166-0.789,6.377-1.21,9.634-0.926c1.506,0.131,3.021,0.416,4.477,0.826
					c4.255,1.198,8.52,2.374,12.619,4.062c2.202,0.907,4.277,2.029,6.084,3.603c1.338,1.165,2.391,2.542,3.081,4.186
					c0.899,2.144,0.845,4.313-0.324,6.271c-1.363,2.284-3.078,4.322-5.544,5.546c-0.806,0.4-1.614,0.818-2.462,1.111
					c-3.356,1.158-6.756,2.171-10.262,2.781c-4.225,0.734-8.473,1.258-12.764,1.387
					C173.356,314.246,172.456,314.305,171.971,314.329z"/>
				<path fill="#666666" d="M172.231,319.34c-4.786-0.041-9.498-0.665-14.127-1.883c-2.134-0.561-4.129-1.457-5.938-2.738
					c-1.474-1.044-2.607-2.385-3.517-3.94c-1.565-2.674-0.893-5.263,0.857-7.105c0.873-0.919,1.924-1.74,3.035-2.347
					c4.404-2.409,9.096-3.747,14.175-3.657c4.037,0.072,7.97,0.61,11.737,2.102c2.699,1.069,5.025,2.69,6.901,4.918
					c1.312,1.557,2.17,3.315,2.217,5.395c0.061,2.65-1.113,4.69-3.174,6.257c-1.67,1.269-3.625,1.897-5.638,2.353
					C176.613,319.182,174.436,319.407,172.231,319.34z"/>
				<path fill="#808080" d="M194.111,321.81c-2.381-0.076-4.464-0.4-6.442-1.248c-1.932-0.828-3.516-2.104-4.764-3.784
					c-1.608-2.165-1.308-4.262,0.827-5.912c0.438-0.339,0.907-0.654,1.403-0.899c3.949-1.954,8.123-3.074,12.535-3.117
					c2.836-0.027,5.503,0.704,7.895,2.293c1.058,0.703,1.962,1.556,2.537,2.711c0.977,1.964,0.798,3.834-0.499,5.591
					c-0.674,0.912-1.569,1.568-2.569,2.087c-1.307,0.679-2.698,1.118-4.143,1.364c-1.643,0.28-3.295,0.514-4.946,0.744
					C195.257,321.736,194.562,321.769,194.111,321.81z"/>
			</g>
			<path fill="#009245" d="M176.619,292.426c-2.342-2.308-4.572-4.506-6.815-6.717c-0.106,0.072-0.19,0.116-0.257,0.178
				c-1.732,1.617-3.812,2.634-6.013,3.413c-2.196,0.777-4.444,1.333-6.799,1.309c-0.824-0.009-1.637-0.098-2.407-0.399
				c-1.322-0.516-2.26-1.394-2.534-2.845c-0.186-0.984,0.073-1.889,0.549-2.74c0.424-0.759,1.003-1.389,1.702-1.9
				c1.688-1.233,3.554-2.031,5.641-2.306c1.306-0.172,2.614-0.227,3.928-0.193c0.395,0.01,0.79,0.073,1.168,0.111
				c0.029-0.05,0.04-0.064,0.046-0.08c0.006-0.017,0.018-0.044,0.011-0.053c-1.898-2.329-3.724-4.713-5.422-7.194
				c-0.563,0.111-1.081,0.231-1.604,0.314c-1.611,0.254-3.223,0.206-4.835,0.004c-1.78-0.223-3.522-0.605-5.192-1.273
				c-0.799-0.319-1.557-0.714-2.203-1.296c-0.622-0.561-1.073-1.23-1.272-2.054c-0.219-0.906,0.016-1.699,0.63-2.377
				c0.71-0.784,1.641-1.133,2.658-1.315c1.191-0.213,2.347-0.06,3.491,0.283c1.576,0.472,3.055,1.161,4.463,2.006
				c0.178,0.107,0.36,0.208,0.623,0.36c-0.061-0.198-0.081-0.32-0.134-0.427c-1.431-2.932-2.589-5.963-3.372-9.135
				c-0.066-0.268-0.217-0.524-0.367-0.761c-1.518-2.412-2.783-4.938-3.469-7.721c-0.374-1.517-0.691-3.046-0.633-4.621
				c0.072-1.944,0.593-3.751,1.745-5.344c0.472-0.653,1.041-1.212,1.721-1.651c1.809-1.166,3.941-0.761,5.185,0.996
				c0.664,0.938,0.989,2.008,1.135,3.135c0.195,1.498-0.087,2.955-0.395,4.411c-0.584,2.767-1.618,5.386-2.618,8.017
				c-0.203,0.533-0.421,1.061-0.657,1.58c-0.329,0.721-0.39,1.436-0.183,2.216c0.645,2.436,1.558,4.769,2.595,7.059
				c0.039,0.085,0.093,0.163,0.165,0.287c0.164-0.206,0.098-0.417,0.103-0.605c0.068-2.408,0.581-4.713,1.606-6.895
				c0.53-1.129,1.227-2.148,2.147-3c0.536-0.497,1.129-0.919,1.87-1.035c1.593-0.248,2.849,0.679,3.13,2.273
				c0.199,1.129,0.049,2.242-0.174,3.344c-0.548,2.717-1.513,5.298-2.619,7.83c-0.564,1.29-1.131,2.578-1.704,3.863
				c-0.138,0.31-0.307,0.606-0.482,0.95c1.426,2.054,2.929,4.085,4.568,6.057c0.202-0.205,0.102-0.418,0.096-0.605
				c-0.027-0.988-0.116-1.977-0.094-2.964c0.041-1.833,0.311-3.637,0.886-5.386c0.342-1.041,0.849-1.993,1.564-2.829
				c0.412-0.481,0.879-0.898,1.44-1.198c1.425-0.761,3.084-0.317,3.939,1.055c0.461,0.741,0.682,1.566,0.807,2.419
				c0.225,1.534,0.201,3.078,0.079,4.615c-0.253,3.185-1.002,6.268-2.039,9.281c-0.24,0.698-0.571,1.365-0.885,2.105
				c1.954,1.97,3.906,3.937,5.956,6.003c0-0.247,0.018-0.367-0.003-0.48c-0.266-1.481-0.426-2.974-0.483-4.478
				c-0.065-1.721,0.038-3.424,0.508-5.09c0.271-0.96,0.667-1.864,1.333-2.625c0.719-0.822,1.614-1.257,2.722-1.175
				c0.874,0.065,1.6,0.456,2.218,1.059c0.637,0.621,1.072,1.379,1.44,2.178c0.711,1.541,1.048,3.174,1.143,4.859
				c0.147,2.589-0.236,5.12-0.82,7.634c-0.158,0.68-0.217,1.386-0.285,2.083c-0.105,1.079-0.163,2.162-0.272,3.24
				c-0.098,0.975,0.211,1.845,0.676,2.659c0.737,1.291,1.483,2.574,1.896,4.014c0.284,0.991,0.493,1.996,0.385,3.038
				c-0.02,0.188-0.048,0.38-0.105,0.559c-0.073,0.232-0.26,0.319-0.494,0.286c-0.217-0.031-0.329-0.177-0.36-0.384
				c-0.014-0.093-0.011-0.19-0.009-0.285c0.04-1.32-0.254-2.581-0.806-3.761c-0.474-1.013-1.027-1.997-1.63-2.939
				c-0.265-0.414-0.729-0.71-1.131-1.023c-0.114-0.089-0.327-0.075-0.493-0.069c-1.056,0.037-2.085,0.254-3.041,0.689
				c-2.509,1.143-5.117,1.94-7.843,2.34c-1.359,0.199-2.725,0.28-4.093,0.063c-0.747-0.118-1.425-0.402-2.031-0.853
				c-1.26-0.936-1.702-2.278-1.257-3.788c0.26-0.88,0.76-1.613,1.385-2.267c1.357-1.42,2.996-2.387,4.851-3.004
				c1.707-0.568,3.458-0.89,5.258-0.942C175.989,292.511,176.231,292.468,176.619,292.426z"/>
		</g>
	</g>
	<g>
		<g>
			<path fill="#9E1E28" d="M277.018,246.525c0.134,0.076,0.266,0.157,0.404,0.226c4.179,2.124,6.655,5.519,7.542,10.1
				c0.298,1.538,0.401,3.096,0.478,4.657c0.127,2.59,0.205,5.184,0.401,7.769c0.256,3.383,0.858,6.707,2.103,9.884
				c0.838,2.139,1.871,4.172,3.349,5.954c0.774,0.934,1.65,1.764,2.557,2.564c0.508,0.448,1.025,0.884,1.528,1.337
				c0.227,0.204,0.459,0.412,0.637,0.656c0.561,0.766,0.161,1.64-0.786,1.703c-0.365,0.024-0.739-0.028-1.104-0.082
				c-2.978-0.443-5.935-1-8.832-1.827c-1.081-0.309-2.153-0.67-3.195-1.091c-3.359-1.356-6.157-3.446-8.068-6.564
				c-1.99-3.247-2.876-6.788-2.626-10.611c0.182-2.782,0.841-5.466,1.534-8.149c0.439-1.698,0.887-3.395,1.255-5.109
				c0.524-2.438-0.005-4.73-1.138-6.905c-0.361-0.694-0.869-1.278-1.489-1.758c-0.61-0.473-1.21-0.965-1.943-1.247
				c-0.539-0.208-0.762-0.644-0.774-1.175c-0.02-0.819-0.005-1.641,0.028-2.46c0.018-0.449,0.103-0.895,0.162-1.342
				c0.139-1.042,0.732-1.734,1.686-2.116c0.611-0.245,1.25-0.422,1.864-0.659c0.465-0.179,0.916-0.396,1.366-0.61
				c1.339-0.637,2.403-1.583,3.259-2.8c1.364-1.94,2.421-4.029,3.128-6.288c0.86-2.749,1.689-5.508,2.516-8.267
				c1.097-3.656,2.36-7.253,3.737-10.814c2.36-6.106,6.048-11.231,11.179-15.305c1.236-0.982,2.481-1.954,3.733-2.915
				c0.264-0.203,0.569-0.364,0.875-0.501c0.325-0.146,0.64-0.061,0.883,0.197c0.252,0.27,0.249,0.597,0.081,0.898
				c-0.196,0.35-0.435,0.676-0.661,1.009c-0.796,1.172-1.632,2.319-2.381,3.521c-1.008,1.617-1.827,3.339-2.381,5.163
				c-0.316,1.042-0.501,2.129-0.686,3.205c-0.497,2.883-0.616,5.793-0.562,8.714c0.043,2.368,0.045,4.737,0.08,7.105
				c0.018,1.256,0.086,2.511,0.096,3.766c0.027,3.344-0.909,6.431-2.643,9.262c-3.207,5.233-7.768,8.698-13.722,10.269
				c-0.867,0.229-1.77,0.319-2.658,0.465c-0.263,0.043-0.53,0.06-0.796,0.089C277.027,246.473,277.022,246.499,277.018,246.525z"/>
			<path fill="#9E1E28" d="M259.086,286.122c-0.032,1.788-0.168,3.616-0.643,5.403c-0.107,0.403-0.242,0.803-0.411,1.183
				c-0.451,1.015-1.444,1.017-2.076,0.35c-0.166-0.175-0.326-0.357-0.47-0.55c-0.25-0.335-0.497-0.675-0.726-1.025
				c-2.226-3.403-5.3-5.75-9.034-7.283c-2.192-0.9-4.462-1.561-6.731-2.228c-1.855-0.545-3.681-1.165-5.416-2.03
				c-0.983-0.49-1.934-1.033-2.756-1.769c-1.717-1.539-2.699-3.448-2.907-5.759c-0.082-0.907-0.048-1.802,0.111-2.692
				c0.136-0.758,0.534-1.065,1.305-1.071c1.52-0.012,3.019,0.196,4.51,0.45c2.339,0.398,4.671,0.398,7.019,0.074
				c1.816-0.251,3.645-0.415,5.466-0.633c1.153-0.138,2.309-0.195,3.47-0.188c1.831,0.011,3.345,0.708,4.55,2.082
				c0.673,0.768,1.206,1.631,1.672,2.535c1.243,2.409,2.035,4.969,2.531,7.626C258.885,282.405,259.063,284.23,259.086,286.122z"/>
			<path fill="#9E1E28" d="M269.989,214.568c-0.052,2.753-0.486,5.06-1.638,7.192c-1,1.851-2.386,3.322-4.348,4.16
				c-1.554,0.664-3.193,0.822-4.873,0.709c-2.652-0.177-5.193-0.9-7.75-1.54c-2.781-0.697-5.59-1.229-8.433-1.597
				c-2.332-0.302-4.626-0.181-6.883,0.47c-0.535,0.154-1.038,0.422-1.557,0.636c-0.37,0.153-0.728,0.352-1.113,0.445
				c-0.764,0.185-1.256-0.291-1.144-1.085c0.109-0.767,0.297-1.516,0.662-2.209c0.828-1.57,2.013-2.822,3.419-3.883
				c2.069-1.562,4.408-2.508,6.921-3.058c1.604-0.351,3.223-0.609,4.864-0.706c1.653-0.098,3.306-0.201,4.96-0.288
				c2.424-0.128,4.796-0.485,7.048-1.452c1.647-0.708,3.081-1.734,4.43-2.894c0.427-0.367,0.825-0.77,1.265-1.121
				c0.259-0.206,0.556-0.405,0.867-0.494c0.487-0.14,0.954-0.012,1.349,0.332c0.497,0.433,0.844,0.967,1.095,1.57
				c0.35,0.839,0.521,1.726,0.642,2.619C269.887,213.217,269.941,214.069,269.989,214.568z"/>
		</g>
		<path fill="#F7931E" d="M272.795,246.14c-0.384,3.1-1.198,6.081-2.513,8.931c-2.203,4.771-5.59,8.45-10.032,11.213
			c-3.596,2.24-7.455,3.795-11.624,4.526c-2.42,0.426-4.859,0.597-7.311,0.546c-4.026-0.079-7.936-0.819-11.749-2.064
			c-2.082-0.68-3.975-1.745-5.789-2.962c-2.087-1.402-4.109-2.888-6.067-4.47c-1.61-1.305-2.98-2.841-4.429-4.308
			c-0.537-0.541-0.93-1.189-1.217-1.902c-0.375-0.921-0.366-1.828,0.116-2.698c0.083-0.148,0.171-0.296,0.259-0.444
			c0.222-0.366,0.458-0.727,0.703-1.115c-0.116-0.106-0.217-0.213-0.338-0.301c-0.009-0.009-0.019-0.018-0.028-0.023
			c-1.282-0.935-1.657-2.258-1.541-3.748c0.051-0.685,0.217-1.37,0.389-2.036c0.463-1.772,1.3-3.383,2.166-4.993
			c1.282-2.397,2.814-4.609,4.553-6.701c1.416-1.703,2.874-3.35,4.604-4.739c3.35-2.689,7.117-4.558,11.24-5.724
			c2.36-0.666,4.757-1.166,7.214-1.277c1.8-0.083,3.609-0.148,5.405-0.056c4.23,0.217,8.334,1.078,12.226,2.781
			c3.702,1.62,6.872,3.975,9.38,7.182c1.212,1.55,2.147,3.244,2.781,5.109c0.347,1.037,0.787,2.045,1.069,3.1
			C272.809,241.985,273.059,244.053,272.795,246.14z"/>
		<g>
			<circle fill="#FFFFFF" cx="224.9" cy="240.308" r="6.815"/>
			<circle cx="224.9" cy="240.308" r="4.29"/>
			<circle fill="#FFFFFF" cx="224.9" cy="239.081" r="1.547"/>
			<circle fill="#FFFFFF" cx="223.353" cy="241.722" r="1.094"/>
		</g>
		<g>
			<path fill="#9E1E28" d="M258.904,248.135c-0.09,1.663-0.178,3.658-0.759,5.589c-0.308,1.023-0.702,2.006-1.357,2.863
				c-0.978,1.278-2.267,1.767-3.834,1.419c-1.348-0.299-2.704-0.591-3.95-1.228c-1.285-0.657-2.451-1.487-3.479-2.496
				c-0.918-0.902-1.8-1.842-2.683-2.78c-0.917-0.974-1.2-2.139-0.968-3.441c0.045-0.253,0.099-0.505,0.156-0.756
				c0.256-1.132,0.825-2.064,1.814-2.691c0.991-0.628,1.987-1.254,3.019-1.812c1.571-0.848,3.168-1.648,4.766-2.445
				c0.763-0.38,1.547-0.714,2.424-0.755c1.526-0.071,2.723,0.508,3.589,1.767c0.615,0.895,0.911,1.909,1.088,2.966
				C258.922,245.487,258.935,246.645,258.904,248.135z"/>
			<g>
				<path fill="#9E1E28" d="M219.07,249.625c-1.12,0.958-2.235,1.856-3.642,2.351c-0.958,0.338-1.971,0.477-2.989,0.532
					c0.222-0.366,0.458-0.727,0.703-1.115c-0.116-0.106-0.217-0.213-0.338-0.301c0.583-0.046,1.166-0.134,1.731-0.292
					c1.407-0.393,2.467-1.226,3.554-2.156C218.764,248.065,219.75,249.042,219.07,249.625z"/>
			</g>
		</g>
	</g>
</g>
</svg>
