<?xml version="1.0" standalone="no"?>
<!DOCTYPE svg PUBLIC "-//W3C//DTD SVG 20010904//EN"
 "http://www.w3.org/TR/2001/REC-SVG-20010904/DTD/svg10.dtd">
<svg version="1.0" xmlns="http://www.w3.org/2000/svg"
 width="700.000000pt" height="700.000000pt" viewBox="0 0 700.000000 700.000000"
 preserveAspectRatio="xMidYMid meet">
<metadata>
Created by potrace 1.11, written by Peter Selinger 2001-2013
</metadata>
<g transform="translate(0.000000,700.000000) scale(0.100000,-0.100000)"
fill="#000000" stroke="none">
<path d="M532 5978 c-80 -9 -145 -61 -170 -137 -9 -25 -12 -517 -12 -1928 0
-2091 -5 -1931 63 -2001 62 -64 5 -61 1377 -61 685 0 1256 0 1268 -1 l24 0 -7
-112 c-3 -61 -8 -114 -9 -117 -2 -3 -7 -31 -10 -61 -18 -150 -74 -312 -136
-390 -58 -74 -84 -85 -202 -89 -54 -2 -77 -85 -33 -119 24 -19 47 -19 820 -19
l796 0 20 25 c10 14 19 35 19 48 0 30 -33 64 -62 65 -13 1 -34 2 -48 4 -14 1
-34 3 -46 3 -12 1 -41 20 -66 41 -109 96 -175 311 -194 628 l-5 93 38 0 c21 1
592 1 1268 1 1356 0 1300 -3 1362 61 68 70 63 -91 63 2009 l0 1902 -26 48
c-31 56 -82 95 -139 105 -49 9 -5880 11 -5953 2z m5926 -137 c6 -1 21 -10 32
-21 20 -20 20 -33 20 -1574 l0 -1554 -3010 0 -3010 0 0 1548 c0 852 3 1556 6
1565 4 10 19 22 34 29 20 8 788 11 2971 9 1619 -1 2950 -2 2957 -2z m52 -3548
l0 -262 -25 -19 c-24 -19 -68 -19 -2985 -19 -2920 -1 -2961 0 -2985 19 l-25
19 0 259 c0 234 2 259 17 262 9 2 1364 3 3010 3 l2993 0 0 -262z m-2735 -445
c2 -2 7 -57 10 -123 4 -66 9 -123 10 -126 2 -3 7 -30 10 -60 15 -126 59 -272
116 -377 21 -41 39 -75 39 -76 0 -3 -913 0 -917 2 -2 1 13 31 32 65 67 122
110 277 130 467 9 87 14 142 14 187 l1 42 88 3 c109 4 463 1 467 -4z"/>
<path d="M3376 5334 c-105 -27 -205 -93 -260 -173 -28 -40 -56 -130 -56 -183
0 -28 0 -27 71 27 l71 55 19 -24 c10 -13 19 -29 19 -34 0 -5 -43 -42 -96 -81
l-95 -72 6 -122 c3 -67 7 -129 10 -137 2 -8 7 -46 10 -85 4 -38 8 -72 10 -74
2 -2 35 19 72 46 94 69 91 68 113 41 11 -13 19 -26 20 -30 0 -4 -43 -39 -96
-79 -105 -78 -98 -65 -79 -159 3 -14 8 -38 11 -55 6 -37 40 -171 60 -242 l15
-53 60 41 c34 22 62 39 63 37 16 -20 36 -54 36 -58 0 -4 -29 -26 -65 -49 -36
-24 -65 -46 -65 -50 0 -19 53 -161 95 -255 40 -88 52 -107 80 -120 47 -23 55
-20 55 17 0 33 0 1782 0 1849 0 41 -4 42 -84 22z"/>
<path d="M3539 5185 c0 -91 0 -433 0 -760 0 -327 0 -687 0 -799 l1 -204 41 16
c51 20 87 71 141 199 51 123 108 310 112 367 1 17 -60 70 -123 105 -10 6 -11
13 -2 27 28 49 26 49 86 10 55 -37 66 -39 71 -13 1 7 9 44 18 83 8 39 18 93
21 121 3 27 8 60 10 74 3 13 8 51 11 84 3 33 7 67 10 75 2 10 -13 26 -44 45
-128 79 -155 95 -161 95 -3 0 -14 7 -24 14 -17 13 -17 16 -2 45 8 17 19 31 23
31 4 0 52 -27 106 -60 55 -32 103 -57 107 -54 12 7 3 312 -10 367 -6 27 -20
66 -31 86 -42 83 -180 175 -298 200 -29 6 -55 11 -57 11 -3 0 -5 -74 -6 -165z"/>
<path d="M3462 3130 l3 -215 35 0 35 0 3 215 2 215 -40 0 -40 0 2 -215z"/>
<path d="M3440 2399 c-46 -19 -75 -67 -74 -126 1 -177 247 -190 271 -14 7 48
-24 108 -68 134 -33 19 -89 21 -129 6z"/>
</g>
</svg>
