<?xml version="1.0" standalone="no"?>
<!DOCTYPE svg PUBLIC "-//W3C//DTD SVG 20010904//EN"
 "http://www.w3.org/TR/2001/REC-SVG-20010904/DTD/svg10.dtd">
<svg version="1.0" xmlns="http://www.w3.org/2000/svg"
 width="2000.000000pt" height="2000.000000pt" viewBox="0 0 2000.000000 2000.000000"
 preserveAspectRatio="xMidYMid meet">
<metadata>
Created by potrace 1.11, written by Peter Selinger 2001-2013
</metadata>
<g transform="translate(0.000000,2000.000000) scale(0.100000,-0.100000)"
fill="#000000" stroke="none">
<path d="M9897 19874 c-1 -1 -105 -5 -232 -9 -126 -4 -246 -8 -265 -10 -19 -2
-82 -6 -140 -9 -58 -4 -118 -8 -135 -10 -16 -2 -66 -7 -110 -10 -44 -4 -91 -9
-105 -11 -14 -2 -52 -7 -85 -10 -33 -3 -71 -8 -85 -10 -14 -2 -47 -6 -75 -10
-178 -22 -471 -71 -715 -120 -142 -28 -628 -149 -721 -178 -24 -8 -71 -22
-104 -32 -86 -24 -562 -183 -599 -199 -17 -7 -110 -44 -206 -81 -445 -173
-955 -421 -1425 -695 -304 -177 -723 -462 -1031 -701 -121 -94 -390 -317 -454
-375 -19 -18 -46 -42 -60 -54 -135 -116 -519 -492 -686 -670 -263 -284 -511
-584 -741 -899 -51 -69 -96 -130 -101 -136 -12 -15 -269 -404 -294 -445 -12
-19 -31 -51 -44 -70 -40 -63 -140 -234 -178 -305 -21 -38 -42 -74 -46 -80 -32
-44 -360 -699 -360 -720 0 -2 -13 -32 -29 -67 -166 -356 -366 -916 -491 -1373
-86 -314 -190 -797 -225 -1040 -3 -22 -10 -67 -15 -100 -5 -33 -12 -80 -15
-105 -3 -25 -7 -61 -10 -80 -3 -19 -7 -53 -9 -75 -14 -119 -18 -152 -21 -175
-2 -14 -6 -61 -9 -105 -6 -76 -9 -120 -21 -265 -28 -369 -23 -1045 11 -1420 3
-36 7 -83 9 -105 6 -80 15 -181 20 -205 2 -14 7 -54 10 -90 3 -36 8 -76 10
-90 2 -14 7 -45 10 -70 10 -78 25 -171 31 -205 3 -11 7 -38 9 -60 3 -22 12
-76 21 -120 8 -44 17 -96 20 -115 3 -19 12 -62 19 -95 8 -33 17 -75 20 -93 3
-19 15 -73 26 -120 11 -48 22 -94 24 -102 45 -212 238 -874 285 -975 5 -11 19
-49 31 -85 22 -67 159 -422 183 -475 8 -16 28 -64 46 -105 63 -146 132 -294
219 -468 105 -213 151 -300 288 -542 117 -207 320 -523 491 -765 207 -293 505
-664 708 -885 28 -30 86 -93 129 -140 102 -111 455 -462 575 -571 481 -436
960 -798 1481 -1120 92 -57 350 -209 354 -209 1 0 45 -24 96 -53 76 -43 392
-203 608 -307 90 -44 463 -200 628 -263 381 -146 860 -297 1173 -368 47 -11
99 -24 115 -29 17 -5 41 -11 55 -14 14 -3 111 -23 215 -44 186 -39 225 -46
295 -57 19 -3 87 -14 150 -25 63 -10 138 -22 165 -25 28 -4 64 -8 80 -10 51
-7 141 -18 245 -30 43 -5 124 -13 210 -20 352 -29 494 -34 890 -34 359 0 350
0 755 24 22 2 74 6 115 9 41 4 98 9 125 12 28 2 66 6 85 9 19 3 55 7 80 10
131 14 236 28 405 55 66 10 134 21 150 23 25 4 170 31 225 42 131 26 276 58
281 61 4 2 22 6 41 9 19 3 95 21 169 41 74 19 143 37 154 39 39 9 341 97 400
117 33 11 67 21 75 23 34 8 356 122 515 182 710 272 1372 616 2005 1041 118
79 226 153 240 163 14 11 95 72 180 136 133 100 228 174 315 245 59 48 246
207 285 242 25 23 81 73 124 111 98 87 494 479 607 601 99 107 252 279 295
333 10 13 28 33 39 45 11 12 47 55 80 96 33 41 63 80 67 85 5 6 18 21 29 35
126 150 566 777 650 926 9 16 46 78 83 138 36 60 66 111 66 113 0 2 11 20 23
41 13 20 43 73 67 117 24 44 55 103 70 130 74 135 243 482 335 690 197 443
404 1045 516 1498 21 89 44 176 49 192 5 17 12 48 15 70 3 22 8 47 11 55 3 8
8 26 10 40 3 14 14 66 24 115 17 75 44 224 66 360 3 17 7 37 9 45 2 8 6 38 10
65 3 28 10 77 15 110 5 33 12 85 15 115 3 30 8 66 10 80 9 67 23 200 30 285 2
33 7 87 10 120 33 365 38 1048 10 1405 -2 30 -7 96 -10 145 -9 123 -47 485
-59 555 -2 14 -7 48 -11 75 -10 78 -16 118 -21 145 -2 14 -7 41 -10 60 -3 19
-7 40 -9 47 -2 6 -7 38 -11 70 -3 32 -8 61 -11 65 -2 4 -8 31 -13 60 -15 84
-20 111 -26 138 -3 14 -8 36 -11 50 -9 49 -94 406 -108 455 -8 28 -33 115 -55
195 -72 254 -206 656 -270 805 -4 11 -23 58 -41 105 -225 587 -565 1237 -944
1810 -120 181 -355 513 -375 530 -3 3 -28 34 -55 70 -103 136 -336 414 -456
545 -25 28 -72 79 -104 115 -83 92 -494 500 -595 590 -46 41 -90 82 -99 91 -9
8 -63 55 -121 105 -58 49 -107 91 -110 94 -3 3 -27 23 -55 45 -27 21 -52 42
-55 45 -16 17 -219 175 -360 279 -802 596 -1733 1083 -2720 1423 -80 27 -149
51 -155 52 -5 2 -17 5 -25 8 -8 3 -53 17 -100 31 -47 14 -107 33 -135 41 -47
15 -263 74 -295 81 -8 2 -109 26 -225 53 -115 27 -228 53 -250 58 -22 4 -42 8
-45 9 -3 1 -27 5 -55 10 -27 5 -52 10 -55 10 -9 3 -84 18 -105 21 -11 2 -31 6
-45 8 -14 3 -43 8 -65 11 -35 5 -98 15 -185 29 -26 4 -90 13 -150 21 -19 2
-53 6 -75 9 -22 3 -65 8 -95 11 -30 4 -66 8 -79 10 -12 2 -60 7 -105 10 -44 4
-94 8 -111 10 -16 2 -75 7 -130 10 -55 3 -117 8 -138 10 -62 7 -703 24 -710
19z m418 -1208 c224 -8 431 -21 510 -31 17 -2 57 -7 90 -9 69 -6 192 -21 309
-36 76 -10 97 -14 169 -25 15 -3 42 -7 60 -10 33 -6 293 -53 324 -60 196 -40
429 -97 633 -154 41 -12 82 -23 90 -25 204 -53 746 -252 1050 -386 179 -79
235 -105 445 -211 481 -243 903 -508 1345 -843 105 -80 125 -96 295 -236 336
-277 712 -645 1004 -980 111 -128 109 -126 222 -265 519 -640 951 -1374 1274
-2164 123 -301 242 -650 330 -971 15 -56 86 -340 90 -360 3 -14 7 -35 10 -47
24 -106 65 -317 81 -418 3 -16 9 -52 14 -80 5 -27 12 -75 16 -105 3 -30 8 -62
9 -70 2 -8 6 -44 10 -80 4 -36 8 -72 10 -80 6 -33 18 -159 30 -305 4 -49 8
-106 10 -125 23 -226 23 -881 0 -1185 -16 -213 -29 -343 -50 -505 -3 -19 -7
-55 -10 -80 -8 -62 -22 -156 -30 -200 -1 -8 -6 -35 -10 -60 -3 -25 -15 -90
-26 -145 -11 -55 -22 -113 -25 -130 -4 -26 -10 -53 -29 -135 -7 -29 -37 -165
-45 -200 -4 -19 -10 -42 -13 -50 -4 -8 -8 -26 -11 -40 -5 -31 -46 -176 -93
-330 -19 -63 -37 -124 -40 -135 -9 -34 -93 -273 -140 -399 -100 -270 -228
-563 -364 -836 -76 -152 -128 -250 -254 -475 -44 -78 -92 -156 -226 -365 -385
-601 -927 -1235 -1473 -1725 -43 -38 -88 -79 -100 -90 -30 -28 -202 -173 -261
-220 -28 -21 -52 -42 -55 -45 -24 -28 -459 -345 -590 -431 -30 -20 -82 -54
-115 -76 -66 -44 -313 -195 -391 -238 -27 -15 -69 -39 -94 -53 -265 -150 -655
-338 -930 -448 -47 -19 -94 -39 -105 -44 -81 -38 -508 -188 -705 -247 -79 -23
-276 -79 -310 -88 -8 -2 -62 -15 -120 -30 -58 -14 -114 -28 -125 -30 -11 -3
-82 -18 -157 -35 -75 -16 -156 -32 -178 -35 -23 -3 -45 -7 -49 -9 -3 -2 -24
-7 -46 -10 -22 -4 -65 -11 -95 -16 -30 -5 -73 -12 -95 -15 -22 -3 -65 -10 -95
-15 -30 -5 -80 -12 -110 -15 -30 -3 -62 -8 -70 -10 -8 -2 -46 -6 -85 -10 -38
-3 -81 -8 -95 -10 -14 -2 -61 -6 -105 -10 -44 -3 -100 -8 -125 -10 -364 -33
-1016 -33 -1410 0 -129 11 -187 16 -222 21 -21 2 -55 6 -75 8 -21 3 -63 8 -94
11 -31 3 -65 7 -75 9 -11 2 -46 7 -79 10 -33 4 -67 9 -75 11 -8 2 -33 6 -55
10 -48 7 -63 9 -180 29 -49 9 -99 18 -110 20 -11 2 -85 18 -165 34 -138 29
-318 72 -442 106 -32 9 -84 23 -115 31 -32 9 -69 20 -83 25 -14 6 -36 13 -50
15 -42 8 -386 123 -570 192 -611 227 -1225 541 -1775 906 -126 84 -351 242
-405 284 -8 6 -53 41 -100 78 -188 146 -251 198 -424 349 -123 108 -309 281
-410 382 -50 50 -254 264 -291 305 -83 91 -201 226 -237 269 -21 25 -67 81
-104 125 -183 221 -437 578 -619 869 -102 165 -136 222 -257 441 -44 79 -288
570 -288 579 0 3 -16 40 -35 82 -19 42 -65 151 -101 242 -36 92 -72 181 -79
197 -37 87 -183 537 -236 730 -36 132 -121 486 -133 555 -3 19 -8 46 -11 60
-3 14 -12 61 -20 105 -8 44 -16 91 -19 105 -3 14 -12 75 -21 135 -9 61 -18
121 -20 135 -6 36 -13 96 -20 160 -3 30 -8 71 -10 90 -12 95 -19 181 -30 355
-27 413 -23 935 10 1290 3 33 8 91 10 130 3 38 7 81 10 95 2 14 7 54 10 90 4
36 9 72 10 81 2 9 6 40 10 69 4 29 8 60 10 69 1 9 6 41 10 71 3 30 10 71 15
90 5 19 11 56 14 83 3 26 7 51 9 55 3 4 8 29 11 56 4 27 9 52 11 56 2 3 6 26
10 50 3 25 15 81 25 125 27 111 61 257 65 275 18 79 140 497 170 580 9 25 18
52 20 60 14 52 131 364 185 495 175 420 341 752 559 1123 36 62 71 121 76 131
64 110 312 478 388 576 4 5 26 35 48 65 121 167 348 443 522 635 65 71 244
260 313 329 150 150 416 394 554 507 36 30 67 56 70 60 3 3 59 48 125 101 297
235 648 477 970 668 117 69 169 99 340 192 270 148 714 349 1050 476 142 53
506 178 545 187 8 2 78 21 155 44 139 39 327 89 375 98 14 2 61 13 105 23 120
28 215 48 265 55 24 4 47 8 50 10 3 2 21 6 40 9 243 39 353 56 395 61 28 3 64
8 80 10 28 4 58 8 180 20 28 3 70 7 95 10 25 3 88 8 140 11 52 3 113 8 135 10
22 2 153 6 290 10 138 4 251 7 252 8 2 2 122 -1 328 -8z"/>
<path d="M5840 10173 c0 -3971 3 -4973 13 -4974 6 0 545 -1 1197 -2 l1185 0 2
3084 c1 1696 2 3086 2 3089 2 6 52 -74 86 -136 14 -27 34 -62 44 -79 10 -16
29 -50 43 -75 14 -25 42 -74 63 -110 21 -36 49 -85 63 -110 14 -25 126 -223
250 -440 124 -217 234 -411 245 -430 39 -70 194 -341 367 -645 97 -170 188
-331 202 -356 14 -25 53 -93 86 -150 58 -101 407 -713 452 -794 12 -22 39 -69
60 -105 21 -36 47 -82 59 -102 49 -88 177 -313 211 -373 10 -16 46 -79 80
-140 35 -60 72 -126 83 -145 11 -19 39 -69 62 -110 23 -41 56 -98 72 -126 28
-47 44 -75 110 -191 14 -27 71 -127 126 -223 55 -96 109 -191 120 -210 11 -19
54 -96 97 -170 42 -74 90 -157 105 -185 16 -27 39 -68 52 -90 12 -22 26 -47
30 -55 4 -8 29 -53 56 -100 54 -92 127 -219 232 -402 37 -65 72 -118 78 -119
58 -4 2356 -1 2363 3 7 5 12 9910 5 9938 -2 8 -2375 6 -2381 -1 -3 -4 -5
-1394 -5 -3088 0 -1695 -2 -3081 -5 -3081 -3 0 -20 26 -37 58 -17 31 -124 221
-239 422 -280 492 -560 985 -591 1040 -14 25 -51 90 -83 145 -31 55 -68 120
-82 145 -14 25 -43 77 -65 115 -127 222 -168 295 -191 335 -13 25 -51 90 -82
145 -61 106 -251 440 -293 515 -14 25 -48 85 -76 133 -28 49 -51 90 -51 91 0
2 -28 52 -63 112 -35 60 -69 118 -75 129 -6 11 -43 75 -82 143 -38 68 -70 125
-70 128 0 2 -11 21 -23 42 -13 20 -35 57 -49 82 -14 25 -34 61 -45 80 -11 19
-94 166 -185 325 -205 361 -486 855 -498 875 -12 19 -239 420 -272 480 -14 25
-35 61 -46 80 -12 19 -27 47 -35 61 -49 90 -213 379 -228 401 -11 15 -19 31
-19 35 0 4 -9 19 -20 33 l-19 25 -1195 0 -1196 0 0 -4972z"/>
</g>
</svg>
