<?xml version="1.0" standalone="no"?>
<!DOCTYPE svg PUBLIC "-//W3C//DTD SVG 20010904//EN"
 "http://www.w3.org/TR/2001/REC-SVG-20010904/DTD/svg10.dtd">
<svg version="1.0" xmlns="http://www.w3.org/2000/svg"
 width="800.000000pt" height="800.000000pt" viewBox="0 0 800.000000 800.000000"
 preserveAspectRatio="xMidYMid meet">
<metadata>
Created by potrace 1.11, written by Peter Selinger 2001-2013
</metadata>
<g transform="translate(0.000000,800.000000) scale(0.100000,-0.100000)"
fill="#000000" stroke="none">
<path d="M4405 7989 c-594 -44 -1270 -194 -1761 -389 -574 -229 -1031 -525
-1434 -929 -558 -560 -888 -1243 -987 -2041 -24 -196 -24 -645 0 -840 54 -428
156 -823 313 -1205 140 -340 404 -822 606 -1108 219 -309 533 -651 773 -841
584 -464 1259 -684 1920 -627 728 64 1471 410 2285 1065 651 524 1084 1073
1364 1733 236 555 330 1118 313 1868 -22 914 -210 1609 -588 2165 -248 365
-575 645 -984 845 -312 153 -638 244 -1035 291 -161 18 -613 26 -785 13z
m-215 -2099 c276 -71 505 -263 626 -526 62 -133 77 -209 78 -384 1 -132 -2
-167 -22 -239 -156 -572 -780 -869 -1308 -621 -266 124 -456 353 -526 636 -32
132 -30 323 5 457 94 354 384 623 745 692 107 20 292 14 402 -15z m-1218
-2280 c68 -21 146 -70 243 -155 78 -68 99 -78 160 -78 60 0 101 19 164 77 150
137 254 181 421 180 162 -1 261 -43 410 -174 83 -73 102 -83 165 -83 60 0 101
19 164 77 150 137 254 181 421 180 164 -1 257 -41 414 -178 80 -70 82 -71 176
-85 71 -12 103 -31 137 -81 60 -87 32 -204 -62 -257 -30 -17 -56 -23 -105 -23
-135 0 -245 47 -375 160 -96 84 -128 100 -193 100 -55 0 -83 -16 -209 -122
-118 -98 -224 -138 -368 -138 -151 0 -256 43 -390 160 -96 84 -128 100 -193
100 -55 0 -83 -16 -209 -122 -118 -98 -224 -138 -368 -138 -153 0 -252 41
-399 166 -101 85 -118 94 -186 94 -53 0 -82 -17 -207 -122 -113 -94 -225 -138
-351 -138 -80 0 -134 27 -167 85 -32 55 -39 98 -24 142 27 84 79 125 178 137
66 9 101 26 160 80 122 111 206 156 341 180 49 9 189 -4 252 -24z m2786 -1109
c46 -23 67 -46 87 -94 31 -75 6 -162 -61 -213 l-37 -29 -1780 -3 -1779 -2 -40
22 c-117 66 -119 244 -3 314 l40 24 1768 0 c1715 0 1769 -1 1805 -19z"/>
<path d="M3811 5534 c-201 -54 -368 -225 -416 -425 -67 -288 96 -583 377 -680
86 -30 231 -37 319 -15 110 28 187 72 269 155 121 122 170 239 170 408 0 166
-48 282 -170 404 -82 83 -177 137 -278 158 -73 15 -206 13 -271 -5z"/>
</g>
</svg>
