<svg width="469" height="155" xmlns="http://www.w3.org/2000/svg"><g fill="none"><path d="M144.592 122.907v-35.2c0-4.353-1.233-7.856-3.699-10.507a12.746 12.746 0 0 0-9.79-3.977 13.158 13.158 0 0 0-10.005 3.977c-2.508 2.651-3.762 6.154-3.762 10.507v35.2l-24.56.198V23.548h24.56V58.22c5.679-5.111 12.871-7.667 21.578-7.667 9.082 0 16.39 2.887 21.926 8.661 5.536 5.775 8.303 12.964 8.303 21.569v42.16l-24.55-.036zm55.784-81.356a14.062 14.062 0 0 1-23.995-9.933 13.516 13.516 0 0 1 4.12-9.933 14.045 14.045 0 0 1 19.875 0 13.534 13.534 0 0 1 4.111 9.933 13.534 13.534 0 0 1-4.11 9.933zm2.266 81.356h-24.56V52.65h24.56v70.258zM44.453 21.417a59.752 59.752 0 0 1 20.727 3.34c6.055 2.221 10.74 4.846 14.053 7.873 2.159 1.944 5.374 5.115 5.374 5.115L67.75 54.969s-3.376-2.41-4.98-3.583c-6.532-4.83-12.686-7.243-18.46-7.237a17.108 17.108 0 0 0-8.482 1.899c-2.275 1.272-3.413 2.997-3.413 5.177 0 3.404 2.556 5.723 7.667 6.96l18.138 4.11c18.93 4.264 28.394 14.251 28.394 29.962 0 8.706-3.583 16.346-10.749 22.92-7.165 6.575-17.34 9.86-30.525 9.853-8.891 0-16.699-1.278-23.422-3.833-6.724-2.556-12.128-5.82-16.212-9.79L0 105.692l19.41-17.018s3.699 3.153 5.177 4.675a29.603 29.603 0 0 0 21.29 8.796c3.966 0 7.065-.755 9.298-2.266 2.233-1.51 3.344-3.302 3.332-5.374a6.386 6.386 0 0 0-3.054-5.679c-2.03-1.296-5.27-2.427-9.719-3.394l-15.612-3.404c-7.577-1.6-13.707-4.885-18.388-9.853-4.682-4.968-7.023-11.238-7.023-18.81 0-9.303 3.738-16.94 11.214-22.911 7.477-5.972 16.986-8.984 28.528-9.038zm302.8 91.602l-10.068-15.961a45.233 45.233 0 0 1-4.12 2.857 10.793 10.793 0 0 1-5.67 1.988c-3.696 0-5.544-2.176-5.544-6.53v-1.441h.062V72.946h22.393V52.649h-22.393V32.048H297.3v69.408c0 7.762 2.46 13.581 7.38 17.457 4.92 3.875 10.93 5.816 18.03 5.822a37.163 37.163 0 0 0 12.845-2.204 22.392 22.392 0 0 0 9.575-6.27c.89-.95 1.608-2.046 2.123-3.242zm-67.536-52.353a32.818 32.818 0 0 0-24.13-10.149c-8.061 0-14.352 2.416-18.872 7.246V52.65H212.28v101.77h24.417v-66.57a14.152 14.152 0 0 1 4.111-10.219 14.036 14.036 0 0 1 20.153 0c5.494 5.706 5.494 14.734 0 20.44a13.435 13.435 0 0 1-10.076 4.254 39.527 39.527 0 0 1-5.106-.304v21.962c3.066.746 6.214 1.1 9.37 1.057a33.015 33.015 0 0 0 24.496-10.39c6.772-6.909 10.155-15.946 10.149-27.113-.006-11.166-3.365-20.123-10.077-26.87z" fill="#241239"/><path d="M418.81 128.747a107.127 107.127 0 0 1-39.321-7.425 15.917 15.917 0 0 1-9.96-15.916l3.52-57.424 17.475 1.066-3.458 56.43a89.462 89.462 0 0 0 63.487-.117c-.43-6.333-2.687-39.599-4.066-59.018-17.475 8.814-32.245 9.504-43.11 1.863a25.447 25.447 0 0 1-10.748-21.13 27.005 27.005 0 0 1 11.232-22.15 25.626 25.626 0 0 1 21.738-4.03c8.285 2.23 15.54 8.598 19.419 17.018l-15.908 7.309c-1.702-3.7-4.792-6.548-8.061-7.434a8.061 8.061 0 0 0-7.103 1.45 9.566 9.566 0 0 0-3.833 7.82 8.142 8.142 0 0 0 3.314 6.825c6.655 4.685 20.09 1.12 35.935-9.53a8.76 8.76 0 0 1 9.226-.34c4.066 2.328 4.299 5.625 4.612 10.193l4.89 70.975a15.836 15.836 0 0 1-10.03 16.05 106.233 106.233 0 0 1-39.25 7.515z" fill="#23CC6B"/></g></svg>